<svg width="22" height="22" viewBox="0 0 22 22" fill="none" xmlns="http://www.w3.org/2000/svg">
<rect width="22" height="22" fill="#111111"/>
<path d="M11.5119 13.0435H10.2644V12.2319C10.2644 11.7343 10.3932 11.3043 10.6508 10.942C10.809 10.7246 11.0508 10.4517 11.3763 10.1232C11.4395 10.0652 11.5503 9.96135 11.7085 9.81159C12.391 9.15942 12.7367 8.50725 12.7458 7.85507C12.7458 7.15942 12.4633 6.66425 11.8983 6.36957L11.4712 6.21739C11.313 6.17874 11.1458 6.15942 10.9695 6.15942C10.2102 6.15942 9.69266 6.44686 9.41695 7.02174C9.25876 7.3599 9.17966 7.84541 9.17966 8.47826H8C8 7.43478 8.20791 6.6256 8.62373 6.05072C9.04407 5.47585 9.67006 5.13768 10.5017 5.03623C10.678 5.01208 10.8588 5 11.0441 5C12.2102 5 13.0508 5.41063 13.5661 6.23188L13.7898 6.68116C13.9299 7.03865 14 7.42995 14 7.85507C14 8.54589 13.7627 9.18357 13.2881 9.76812C13.1119 9.99517 12.8859 10.2415 12.6102 10.5072C12.0271 11.0821 11.6881 11.5024 11.5932 11.7681C11.539 11.9179 11.5119 12.1111 11.5119 12.3478V13.0435ZM11.5119 14.4565V16H10.2644V14.4565H11.5119Z" fill="#E5E5E5"/>
</svg>
