<svg width="24" height="24" viewBox="0 0 24 24" fill="none" xmlns="http://www.w3.org/2000/svg">
<path fill-rule="evenodd" clip-rule="evenodd" d="M12.7356 18V15.5076H10.4826V18H12.7356ZM12.4284 12.828C14.6304 12.0258 15.8592 11.0526 15.8592 9.141C15.8592 7.1778 14.4432 6 12.2064 6C10.653 6 9.4242 6.495 8.4 7.2288L8.6904 9.2088C9.663 8.4582 10.7724 7.9116 11.9844 7.9116C13.0086 7.9116 13.6914 8.424 13.6914 9.2946C13.6914 10.2504 13.0434 10.7796 11.4042 11.3598L10.875 11.565L11.0802 14.2788L12.3258 14.0058L12.4284 12.828V12.828Z" fill="black" fill-opacity="0.8"/>
<path d="M20.4 0.599999H3.6C1.94314 0.599999 0.599998 1.94315 0.599998 3.6V20.4C0.599998 22.0569 1.94314 23.4 3.6 23.4H20.4C22.0569 23.4 23.4 22.0569 23.4 20.4V3.6C23.4 1.94315 22.0569 0.599999 20.4 0.599999Z" stroke="black" stroke-opacity="0.4" stroke-width="1.2"/>
<path d="M4.2 5.4C4.86274 5.4 5.4 4.86274 5.4 4.2C5.4 3.53726 4.86274 3 4.2 3C3.53726 3 3 3.53726 3 4.2C3 4.86274 3.53726 5.4 4.2 5.4Z" fill="black" fill-opacity="0.4"/>
<path d="M4.2 21C4.86274 21 5.4 20.4627 5.4 19.8C5.4 19.1373 4.86274 18.6 4.2 18.6C3.53726 18.6 3 19.1373 3 19.8C3 20.4627 3.53726 21 4.2 21Z" fill="black" fill-opacity="0.4"/>
<path d="M19.8 5.4C20.4627 5.4 21 4.86274 21 4.2C21 3.53726 20.4627 3 19.8 3C19.1373 3 18.6 3.53726 18.6 4.2C18.6 4.86274 19.1373 5.4 19.8 5.4Z" fill="black" fill-opacity="0.4"/>
<path d="M19.8 21C20.4627 21 21 20.4627 21 19.8C21 19.1373 20.4627 18.6 19.8 18.6C19.1373 18.6 18.6 19.1373 18.6 19.8C18.6 20.4627 19.1373 21 19.8 21Z" fill="black" fill-opacity="0.4"/>
</svg>
